# xmcd CD database file
#
# Track frame offsets:
#	150
#	12644
#	24355
#	45926
#	62168
#	77783
#	99378
#	108736
#	125852
#	136047
#
# Disc length: 2019 seconds
#
# Revision: 0
# Processed by: cddbd v1.5.1PL2 Copyright (c) Steve Scherf et al.
# Submitted via: CDex 1.60beta1-cs1
#
DISCID=8007e10a
DTITLE=太田昌宏 - ジャズ・アレンジ Vol 3
DYEAR=1900
DGENRE=Jazz
TTITLE0=ゆかいな鍛冶屋
TTITLE1=鐘の谷
TTITLE2=ガヴォット
TTITLE3=ノクターン作品9-2
TTITLE4=子犬のワルツ
TTITLE5=夢
TTITLE6=ジムノペデイ第2番
TTITLE7=春の歌
TTITLE8=バガテル
TTITLE9=トルコ行進曲
EXTD=
EXTT0=
EXTT1=
EXTT2=
EXTT3=
EXTT4=
EXTT5=
EXTT6=
EXTT7=
EXTT8=
EXTT9=
PLAYORDER=
